Coordinates
version=1
nRows=22
nColumns=24
inDegrees=yes

Units are S.I. units (second, meters, Newtons, ...)
Angles are in degrees.

endheader
time	pelvis_tilt	pelvis_list	pelvis_rotation	pelvis_tx	pelvis_ty	pelvis_tz	hip_flexion_r	hip_adduction_r	hip_rotation_r	knee_angle_r	ankle_angle_r	subtalar_angle_r	mtp_angle_r	hip_flexion_l	hip_adduction_l	hip_rotation_l	knee_angle_l	ankle_angle_l	subtalar_angle_l	mtp_angle_l	lumbar_extension	lumbar_bending	lumbar_rotation
      0.73400000	     -3.82755577	      2.72640004	      1.80363294	     -0.45213268	      1.06850645	      0.34308148	     15.79589702	      0.56510997	     -1.12028255	    -19.57959614	      6.31160606	     -6.10170393	      8.83826463	     18.13978522	     -2.36664867	     -7.03621505	    -69.91352290	      3.16727034	      0.61862192	      5.62487913	     -9.67461644	      1.83763020	      0.31951869
      0.73816667	     -3.80176134	      2.82266884	      1.69554094	     -0.44692448	      1.06953194	      0.34358698	     15.28900352	      0.50109281	     -1.08923234	    -19.21509132	      6.40292616	     -5.95002671	      8.84161132	     18.59888072	     -2.30794492	     -7.24950390	    -69.63497799	      3.47408076	      0.81741654	      5.61281584	     -9.71704214	      1.67066858	      0.51318524
      0.74233333	     -3.75498373	      2.91647023	      1.57687650	     -0.44172734	      1.07055869	      0.34409091	     14.75952762	      0.43959723	     -1.05717071	    -18.84489557	      6.49907531	     -5.79730500	      8.84655989	     19.02100908	     -2.25299330	     -7.47368526	    -69.29909714	      3.77025102	      1.01998625	      5.60186708	     -9.78301853	      1.50682364	      0.72954667
      0.74650000	     -3.72734212	      3.01104054	      1.43729242	     -0.43654590	      1.07151064	      0.34460185	     14.25922692	      0.37883858	     -0.99901211	    -18.48332724	      6.54946563	     -5.64784020	      8.85071196	     19.44904498	     -2.20062955	     -7.72432231	    -68.91115969	      4.07848438	      1.20904274	      5.60055208	     -9.82256344	      1.36381077	      0.87196696
      0.75066667	     -3.67456258	      3.07480089	      1.31325720	     -0.43137586	      1.07244807	      0.34509499	     13.72237313	      0.34778865	     -0.96245698	    -18.10334949	      6.65709159	     -5.51497678	      8.85815650	     19.84858544	     -2.18381614	     -7.95783923	    -68.49025016	      4.36895168	      1.46967532	      5.59617536	     -9.90156855	      1.22454492	      1.14075032
      0.75483333	     -3.62231867	      3.15612735	      1.16465267	     -0.42622949	      1.07333545	      0.34560279	     13.19929845	      0.29931892	     -0.89963191	    -17.74256281	      6.73445902	     -5.37685266	      8.86505602	     20.23003048	     -2.15045824	     -8.22059288	    -68.00988330	      4.65606757	      1.69221508	      5.59531168	     -9.97252405	      1.08290089	      1.33387355
      0.75900000	     -3.57309274	      3.22157205	      1.01943393	     -0.42109166	      1.07416846	      0.34610047	     12.67494914	      0.26625052	     -0.83476479	    -17.36915137	      6.81071344	     -5.24334392	      8.87365662	     20.60857925	     -2.13536100	     -8.48233956	    -67.49271632	      4.94533155	      1.93250938	      5.59563625	    -10.05300929	      0.95496601	      1.55874066
      0.76316667	     -3.55701726	      3.29347292	      0.85833641	     -0.41597080	      1.07489069	      0.34660915	     12.19772211	      0.22648284	     -0.74792459	    -17.01257153	      6.86113491	     -5.10569780	      8.88010018	     21.01057864	     -2.11514076	     -8.76295531	    -66.92863426	      5.21861730	      2.12702359	      5.59955856	    -10.09412218	      0.82276588	      1.68606213
      0.76733333	     -3.49413395	      3.33314600	      0.71363070	     -0.41086300	      1.07563326	      0.34707443	     11.66104124	      0.21611762	     -0.68843091	    -16.63976908	      6.95779474	     -4.99437338	      8.89157826	     21.35687908	     -2.12436997	     -9.01537858	    -66.32845595	      5.50053017	      2.40006212	      5.60289326	    -10.18503688	      0.72250907	      1.97301492
      0.77150000	     -3.46113891	      3.38876393	      0.55316037	     -0.40576100	      1.07628716	      0.34755624	     11.16705037	      0.18905653	     -0.60617006	    -16.28337823	      7.03485406	     -4.87392765	      8.90243680	     21.71841030	     -2.11828657	     -9.29009559	    -65.67387852	      5.76103213	      2.62846997	      5.60691621	    -10.23908791	      0.60922253	      2.16764634
      0.77566667	     -3.42408343	      3.44133105	      0.38361230	     -0.40067115	      1.07689583	      0.34803419	     10.67568238	      0.16265640	     -0.52117928	    -15.93803102	      7.09888465	     -4.75418982	      8.91119595	     22.06179708	     -2.11680344	     -9.57346486	    -64.97223134	      6.01630035	      2.85266036	      5.61242313	    -10.29419035	      0.51672768	      2.31372462
      0.77983333	     -3.38464398	      3.46942547	      0.23248368	     -0.39559865	      1.07744132	      0.34847377	     10.17397234	      0.15927970	     -0.44669585	    -15.57759723	      7.18487242	     -4.64527062	      8.92251825	     22.40194799	     -2.13277760	     -9.82749261	    -64.24478948	      6.27256485	      3.09634536	      5.61806842	    -10.36310937	      0.43370423	      2.53172357
      0.78400000	     -3.35368973	      3.50170500	      0.08002849	     -0.39052998	      1.07792893	      0.34891315	      9.68515261	      0.14942259	     -0.36574736	    -15.22449338	      7.26880818	     -4.53756258	      8.93511924	     22.73700460	     -2.14020792	    -10.07699375	    -63.46851222	      6.50879211	      3.31756831	      5.62308976	    -10.42355376	      0.34316029	      2.73481384
      0.78816667	     -3.33014014	      3.51777556	     -0.07003007	     -0.38547530	      1.07833539	      0.34932868	      9.20759409	      0.15436637	     -0.28894163	    -14.87639135	      7.34913726	     -4.43659137	      8.94709446	     23.07295922	     -2.16261439	    -10.32069196	    -62.65932837	      6.74048935	      3.54574642	      5.62873123	    -10.46925835	      0.28052985	      2.90515154
      0.79233333	     -3.32059534	      3.54255026	     -0.22533378	     -0.38042070	      1.07868107	      0.34973671	      8.75444008	      0.14716421	     -0.20898569	    -14.54747594	      7.42041880	     -4.33063921	      8.95649588	     23.40632120	     -2.17101290	    -10.56234475	    -61.79555732	      6.95248775	      3.76009677	      5.63410510	    -10.49944716	      0.22234564	      3.03538437
      0.79650000	     -3.30893375	      3.55085850	     -0.36776542	     -0.37537730	      1.07896430	      0.35011031	      8.29399395	      0.15431164	     -0.13756676	    -14.20914322	      7.50815124	     -4.22517888	      8.96607789	     23.73163084	     -2.18874127	    -10.78268640	    -60.90216087	      7.16517761	      3.98886848	      5.63978906	    -10.53384038	      0.17545491	      3.18851399
      0.80066667	     -3.31459935	      3.54989214	     -0.49870509	     -0.37033044	      1.07916128	      0.35045518	      7.85254629	      0.16848149	     -0.07341267	    -13.87481120	      7.60499753	     -4.13239723	      8.97623933	     24.06631791	     -2.20769725	    -10.98160661	    -59.97083281	      7.35873668	      4.21475081	      5.64544504	    -10.54733296	      0.14095157	      3.35484936
      0.80483333	     -3.31366355	      3.53699631	     -0.62391756	     -0.36530666	      1.07930636	      0.35078871	      7.40592885	      0.19438386	     -0.01084537	    -13.54429050	      7.69263833	     -4.04064706	      8.98542881	     24.38573138	     -2.23326832	    -11.16178361	    -59.00529208	      7.53959368	      4.43337684	      5.65108192	    -10.57383120	      0.11934390	      3.49138822
      0.80900000	     -3.32850091	      3.51345249	     -0.73867600	     -0.36027659	      1.07937048	      0.35109127	      6.97518590	      0.22935731	      0.04809803	    -13.21551046	      7.78895841	     -3.96074029	      8.99471841	     24.71124795	     -2.26128504	    -11.31996641	    -58.00277790	      7.70448992	      4.65184843	      5.65725638	    -10.57930376	      0.11180762	      3.63282154
      0.81316667	     -3.34071022	      3.48417667	     -0.84355720	     -0.35524979	      1.07940454	      0.35136081	      6.53896139	      0.26716088	      0.09970472	    -12.88234570	      7.88352113	     -3.88671058	      9.00382089	     25.02046400	     -2.28314664	    -11.45506688	    -56.95473870	      7.84931083	      4.86357273	      5.66373854	    -10.58863191	      0.11449058	      3.76566454
      0.81733333	     -3.35490732	      3.43884002	     -0.93670670	     -0.35023188	      1.07936922	      0.35160756	      6.10382846	      0.32144991	      0.15218432	    -12.55068045	      7.98519866	     -3.82389034	      9.01523052	     25.32334249	     -2.31283881	    -11.56144404	    -55.87538243	      7.97898435	      5.06395169	      5.67363263	    -10.60255626	      0.13500401	      3.91557509
      0.82150000	     -3.39887841	      3.40334937	     -1.02373815	     -0.34520607	      1.07923328	      0.35183292	      5.70728065	      0.36251838	      0.19157822	    -12.23422416	      8.07713006	     -3.75266623	      9.02236767	     25.64164275	     -2.32214831	    -11.65189052	    -54.74744995	      8.07189515	      5.24745969	      5.68070820	    -10.57213147	      0.15313425	      3.98730484
